<mxfile host="Electron" modified="2024-04-12T23:37:07.051Z" agent="Mozilla/5.0 (Windows NT 10.0; Win64; x64) AppleWebKit/537.36 (KHTML, like Gecko) draw.io/24.0.4 Chrome/120.0.6099.109 Electron/28.1.0 Safari/537.36" etag="8c_t11lQ9lUlgqsyH4Od" version="24.0.4" type="device">
  <diagram name="第 1 页" id="DpJjNBeBC1oNQxyfcNkW">
    <mxGraphModel dx="1246" dy="613" grid="1" gridSize="10" guides="1" tooltips="1" connect="1" arrows="1" fold="1" page="1" pageScale="1" pageWidth="827" pageHeight="1169" math="0" shadow="0">
      <root>
        <mxCell id="0" />
        <mxCell id="1" parent="0" />
        <mxCell id="0xuzvnkJqEc35yQp5yff-2" value="Vite5+Vue3+CompositionAPI+Setup语法糖+TypeScript" style="rounded=0;whiteSpace=wrap;html=1;" vertex="1" parent="1">
          <mxGeometry x="280" y="500" width="440" height="60" as="geometry" />
        </mxCell>
        <mxCell id="0xuzvnkJqEc35yQp5yff-3" value="首页" style="rounded=0;whiteSpace=wrap;html=1;" vertex="1" parent="1">
          <mxGeometry x="60" y="60" width="120" height="60" as="geometry" />
        </mxCell>
        <mxCell id="0xuzvnkJqEc35yQp5yff-4" value="学习" style="rounded=0;whiteSpace=wrap;html=1;" vertex="1" parent="1">
          <mxGeometry x="250" y="60" width="120" height="60" as="geometry" />
        </mxCell>
        <mxCell id="0xuzvnkJqEc35yQp5yff-5" value="社区" style="rounded=0;whiteSpace=wrap;html=1;" vertex="1" parent="1">
          <mxGeometry x="414" y="60" width="120" height="60" as="geometry" />
        </mxCell>
        <mxCell id="0xuzvnkJqEc35yQp5yff-6" value="博客" style="rounded=0;whiteSpace=wrap;html=1;" vertex="1" parent="1">
          <mxGeometry x="580" y="60" width="120" height="60" as="geometry" />
        </mxCell>
        <mxCell id="0xuzvnkJqEc35yQp5yff-7" value="关于我们" style="rounded=0;whiteSpace=wrap;html=1;" vertex="1" parent="1">
          <mxGeometry x="740" y="60" width="120" height="60" as="geometry" />
        </mxCell>
        <mxCell id="0xuzvnkJqEc35yQp5yff-8" value="轮播" style="rounded=0;whiteSpace=wrap;html=1;" vertex="1" parent="1">
          <mxGeometry x="60" y="190" width="120" height="60" as="geometry" />
        </mxCell>
        <mxCell id="0xuzvnkJqEc35yQp5yff-9" value="菜单导航" style="rounded=0;whiteSpace=wrap;html=1;" vertex="1" parent="1">
          <mxGeometry x="250" y="190" width="120" height="60" as="geometry" />
        </mxCell>
        <mxCell id="0xuzvnkJqEc35yQp5yff-10" value="按钮和图标" style="rounded=0;whiteSpace=wrap;html=1;" vertex="1" parent="1">
          <mxGeometry x="420" y="190" width="120" height="60" as="geometry" />
        </mxCell>
        <mxCell id="0xuzvnkJqEc35yQp5yff-11" value="Markdown" style="rounded=0;whiteSpace=wrap;html=1;" vertex="1" parent="1">
          <mxGeometry x="580" y="190" width="120" height="60" as="geometry" />
        </mxCell>
        <mxCell id="0xuzvnkJqEc35yQp5yff-12" value="Grid布局" style="rounded=0;whiteSpace=wrap;html=1;" vertex="1" parent="1">
          <mxGeometry x="750" y="190" width="120" height="60" as="geometry" />
        </mxCell>
        <mxCell id="0xuzvnkJqEc35yQp5yff-13" value="Swiper.js" style="rounded=0;whiteSpace=wrap;html=1;" vertex="1" parent="1">
          <mxGeometry x="60" y="300" width="120" height="60" as="geometry" />
        </mxCell>
        <mxCell id="0xuzvnkJqEc35yQp5yff-14" value="axios" style="rounded=0;whiteSpace=wrap;html=1;" vertex="1" parent="1">
          <mxGeometry x="230" y="300" width="120" height="60" as="geometry" />
        </mxCell>
        <mxCell id="0xuzvnkJqEc35yQp5yff-15" value="Utils&lt;br&gt;Compostion AIP" style="rounded=0;whiteSpace=wrap;html=1;" vertex="1" parent="1">
          <mxGeometry x="400" y="300" width="120" height="60" as="geometry" />
        </mxCell>
        <mxCell id="0xuzvnkJqEc35yQp5yff-16" value="mock接口" style="rounded=0;whiteSpace=wrap;html=1;" vertex="1" parent="1">
          <mxGeometry x="580" y="300" width="120" height="60" as="geometry" />
        </mxCell>
        <mxCell id="0xuzvnkJqEc35yQp5yff-17" value="pina状态管理" style="rounded=0;whiteSpace=wrap;html=1;" vertex="1" parent="1">
          <mxGeometry x="740" y="300" width="120" height="60" as="geometry" />
        </mxCell>
        <mxCell id="0xuzvnkJqEc35yQp5yff-18" value="css框架，布局框架" style="rounded=0;whiteSpace=wrap;html=1;" vertex="1" parent="1">
          <mxGeometry x="880" y="300" width="120" height="60" as="geometry" />
        </mxCell>
        <mxCell id="0xuzvnkJqEc35yQp5yff-19" value="vite-plugin-vue-layouts" style="rounded=0;whiteSpace=wrap;html=1;" vertex="1" parent="1">
          <mxGeometry x="60" y="410" width="120" height="60" as="geometry" />
        </mxCell>
        <mxCell id="0xuzvnkJqEc35yQp5yff-20" value="vue-router&lt;br&gt;unplugin-vue-router" style="rounded=0;whiteSpace=wrap;html=1;" vertex="1" parent="1">
          <mxGeometry x="230" y="410" width="120" height="60" as="geometry" />
        </mxCell>
        <mxCell id="0xuzvnkJqEc35yQp5yff-21" value="vite-plugin-mock.js" style="rounded=0;whiteSpace=wrap;html=1;" vertex="1" parent="1">
          <mxGeometry x="400" y="410" width="120" height="60" as="geometry" />
        </mxCell>
        <mxCell id="0xuzvnkJqEc35yQp5yff-22" value="vue-markdown-shiki" style="rounded=0;whiteSpace=wrap;html=1;" vertex="1" parent="1">
          <mxGeometry x="580" y="410" width="120" height="60" as="geometry" />
        </mxCell>
        <mxCell id="0xuzvnkJqEc35yQp5yff-23" value="unplugin-auto-import" style="rounded=0;whiteSpace=wrap;html=1;" vertex="1" parent="1">
          <mxGeometry x="740" y="410" width="120" height="60" as="geometry" />
        </mxCell>
        <mxCell id="0xuzvnkJqEc35yQp5yff-24" value="unplugin-vue-macros" style="rounded=0;whiteSpace=wrap;html=1;" vertex="1" parent="1">
          <mxGeometry x="890" y="410" width="120" height="60" as="geometry" />
        </mxCell>
        <mxCell id="0xuzvnkJqEc35yQp5yff-25" value="SSR方案" style="rounded=0;whiteSpace=wrap;html=1;" vertex="1" parent="1">
          <mxGeometry x="60" y="610" width="120" height="60" as="geometry" />
        </mxCell>
        <mxCell id="0xuzvnkJqEc35yQp5yff-26" value="CDN资源" style="rounded=0;whiteSpace=wrap;html=1;" vertex="1" parent="1">
          <mxGeometry x="230" y="610" width="120" height="60" as="geometry" />
        </mxCell>
        <mxCell id="0xuzvnkJqEc35yQp5yff-27" value="传输压缩方案" style="rounded=0;whiteSpace=wrap;html=1;" vertex="1" parent="1">
          <mxGeometry x="414" y="610" width="120" height="60" as="geometry" />
        </mxCell>
        <mxCell id="0xuzvnkJqEc35yQp5yff-28" value="集成测试/e2e测试" style="rounded=0;whiteSpace=wrap;html=1;" vertex="1" parent="1">
          <mxGeometry x="580" y="610" width="120" height="60" as="geometry" />
        </mxCell>
        <mxCell id="0xuzvnkJqEc35yQp5yff-29" value="nest.js&amp;nbsp; 后端服务框架" style="rounded=0;whiteSpace=wrap;html=1;" vertex="1" parent="1">
          <mxGeometry x="60" y="760" width="120" height="60" as="geometry" />
        </mxCell>
        <mxCell id="0xuzvnkJqEc35yQp5yff-30" value="mysql,redis" style="rounded=0;whiteSpace=wrap;html=1;" vertex="1" parent="1">
          <mxGeometry x="60" y="890" width="120" height="60" as="geometry" />
        </mxCell>
        <mxCell id="0xuzvnkJqEc35yQp5yff-31" value="ubuntu+docker" style="rounded=0;whiteSpace=wrap;html=1;" vertex="1" parent="1">
          <mxGeometry x="60" y="990" width="120" height="60" as="geometry" />
        </mxCell>
        <mxCell id="0xuzvnkJqEc35yQp5yff-32" value="node18+VScode" style="rounded=0;whiteSpace=wrap;html=1;" vertex="1" parent="1">
          <mxGeometry x="60" y="1070" width="710" height="60" as="geometry" />
        </mxCell>
      </root>
    </mxGraphModel>
  </diagram>
</mxfile>
